<svg xmlns="http://www.w3.org/2000/svg" viewBox="0 0 900 560" role="img" aria-label="Chemical engineering software teaching visual">
  <defs>
    <linearGradient id="bg" x1="0" y1="0" x2="1" y2="1">
      <stop offset="0" stop-color="#e8eef0"/>
      <stop offset=".56" stop-color="#fbfbfb"/>
      <stop offset="1" stop-color="#e1f2ec"/>
    </linearGradient>
  </defs>
  <rect width="900" height="560" fill="url(#bg)"/>
  <rect x="92" y="128" width="716" height="332" rx="18" fill="#ffffff" stroke="#b8c6c8"/>
  <rect x="92" y="128" width="716" height="58" rx="18" fill="#10252a"/>
  <circle cx="130" cy="157" r="7" fill="#ffdf7e"/>
  <circle cx="154" cy="157" r="7" fill="#8abf55"/>
  <circle cx="178" cy="157" r="7" fill="#2bb8b2"/>
  <g stroke="#10252a" stroke-width="2" fill="none" opacity=".76">
    <rect x="130" y="224" width="150" height="120" rx="10"/>
    <path d="M340 232h300M340 278h220M340 324h340M130 388h612"/>
    <path d="M162 284h86M205 242v84"/>
  </g>
  <g fill="#2bb8b2" opacity=".9">
    <rect x="340" y="232" width="220" height="12" rx="6"/>
    <rect x="340" y="278" width="144" height="12" rx="6"/>
    <rect x="340" y="324" width="260" height="12" rx="6"/>
  </g>
  <circle cx="696" cy="286" r="44" fill="#10252a"/>
  <path d="m684 262 38 24-38 24z" fill="#ffffff"/>
  <g fill="#10252a" opacity=".82" font-family="Inter, Arial, sans-serif" font-weight="700">
    <text x="126" y="78" font-size="22">COURSE &amp; SOFTWARE TUTORIALS</text>
    <text x="126" y="112" font-size="13" opacity=".62">Aspen · VASP · Gaussian · Origin</text>
  </g>
</svg>
