<svg xmlns="http://www.w3.org/2000/svg" viewBox="0 0 900 560" role="img" aria-label="Machine learning catalyst design visual">
  <defs>
    <linearGradient id="bg" x1="0" y1="0" x2="1" y2="1">
      <stop offset="0" stop-color="#eef8df"/>
      <stop offset=".62" stop-color="#fbfcf7"/>
      <stop offset="1" stop-color="#d8efeb"/>
    </linearGradient>
  </defs>
  <rect width="900" height="560" fill="url(#bg)"/>
  <g transform="translate(92 118)" fill="none" stroke="#10252a" stroke-width="2" opacity=".62">
    <path d="M88 80 188 24l100 56v114l-100 56-100-56Z"/>
    <path d="M188 24v226M88 80l200 114M288 80 88 194"/>
    <path d="M432 68h208M432 154h276M432 240h172"/>
    <path d="M390 68h-46M390 154h-90M390 240h-46"/>
  </g>
  <g fill="#ffffff" stroke="#10252a" stroke-width="2">
    <circle cx="180" cy="198" r="24"/>
    <circle cx="280" cy="142" r="30"/>
    <circle cx="380" cy="198" r="22"/>
    <circle cx="280" cy="312" r="34"/>
  </g>
  <g fill="#2bb8b2">
    <circle cx="180" cy="198" r="8"/>
    <circle cx="380" cy="198" r="7"/>
  </g>
  <circle cx="280" cy="142" r="10" fill="#8abf55"/>
  <circle cx="280" cy="312" r="12" fill="#111b20"/>
  <g fill="#ffffff" stroke="#7fae5f" stroke-width="2">
    <rect x="480" y="168" width="250" height="92" rx="10"/>
    <rect x="506" y="194" width="118" height="12" rx="6" fill="#7fae5f" stroke="none"/>
    <rect x="506" y="226" width="174" height="12" rx="6" fill="#2bb8b2" stroke="none"/>
  </g>
  <g fill="#10252a" opacity=".82" font-family="Inter, Arial, sans-serif" font-weight="700">
    <text x="126" y="78" font-size="22">AI-ASSISTED CATALYST DESIGN</text>
    <text x="126" y="112" font-size="13" opacity=".62">descriptor · prediction · optimization</text>
  </g>
</svg>
